<svg xmlns="http://www.w3.org/2000/svg" width="123" height="41" viewBox="0 0 123 41">
    <defs>
        <style>
            .cls-2{fill:#04285e}
        </style>
    </defs>
    <g id="lgo_kblstore" transform="translate(-50 -40.264)">
        <g id="그룹_200" transform="translate(50 42.076)">
            <g id="그룹_197" transform="translate(0 0)">
                <path id="패스_751" d="M-936.909 25.6l-3.106 12.282h-7.059l6.565-26.753 7.059.071-2.612 11.153 6.847-11.153h7.129l-8.753 12.988 3.176 13.694h-7.553z" class="cls-2" transform="translate(947.074 -1.63)"/>
                <path id="패스_752" d="M-788.215 31.132l-5.859 23.929s22.165-14.117 5.859-23.929z" class="cls-2" transform="translate(815.674 -18.806)"/>
                <path id="패스_753" d="M-775.692 10.8s18 13.059-9.882 26.753h9.741s9.812.353 11.576-6.847c0 0 2.471-6.141-3.812-7.059 0 0-.474-.266.363-.368 0 0 3.406.044 4.713-2.525s2.971-6.618-.735-8.806c.001.004-2.187-1.496-11.964-1.148z" class="cls-2" transform="translate(808.374 -1.303)"/>
                <path id="패스_754" d="M-609.815 31.673h-5.435l5.012-20.541h-7.341l-6.494 26.753h12.847z" class="cls-2" transform="translate(669.674 -1.63)"/>
                <circle id="타원_18" cx="5.4" cy="5.4" r="5.4" fill="#e64e19" transform="translate(21.6 0)"/>
            </g>
            <g id="그룹_199" transform="translate(64.953 18.545)">
                <g id="그룹_198" transform="translate(0)">
                    <path id="패스_755" d="M-478.919 107.341q.216-1.262-1.638-1.752a20.755 20.755 0 0 1-2.53-.784q-2.626-1.121-2.536-3.415a3.879 3.879 0 0 1 1.688-3.078 6.19 6.19 0 0 1 3.893-1.192 5.329 5.329 0 0 1 3.575 1.236 3.943 3.943 0 0 1 1.357 3.173l-2.995-.013a1.934 1.934 0 0 0-.523-1.5 2.133 2.133 0 0 0-1.5-.567 2.964 2.964 0 0 0-1.727.5 1.852 1.852 0 0 0-.835 1.3q-.178 1.16 1.631 1.612a17.927 17.927 0 0 1 2.676.835 3.49 3.49 0 0 1 2.434 3.466 3.813 3.813 0 0 1-.86 2.287 5.021 5.021 0 0 1-2.135 1.491 7.3 7.3 0 0 1-2.842.478 5.606 5.606 0 0 1-3.74-1.313 4.1 4.1 0 0 1-1.459-3.3l2.919.013a2.219 2.219 0 0 0 .663 1.682 2.561 2.561 0 0 0 1.746.586 3.468 3.468 0 0 0 1.867-.465 1.785 1.785 0 0 0 .871-1.28z" class="cls-2" transform="translate(486.987 -94.023)"/>
                    <path id="패스_756" d="M-384.715 75.187l-.586 3.352h2.358l-.4 2.294h-2.371l-1.3 7.723a2.631 2.631 0 0 0-.013.573q.076.829 1.02.867a5.765 5.765 0 0 0 1.07-.115l-.2 2.421a6.924 6.924 0 0 1-1.9.268 2.821 2.821 0 0 1-2.364-1.077 3.9 3.9 0 0 1-.618-2.785l1.287-7.876h-2.2l.408-2.294h2.192l.586-3.352z" class="cls-2" transform="translate(404.494 -75.187)"/>
                    <path id="패스_757" d="M-332.257 104.205a9.073 9.073 0 0 1 1.192-3.683 7.073 7.073 0 0 1 2.5-2.561 6.19 6.19 0 0 1 3.39-.854 5.268 5.268 0 0 1 3.059.943 5.238 5.238 0 0 1 1.88 2.511 7.974 7.974 0 0 1 .414 3.543 9.246 9.246 0 0 1-1.192 3.874 7.044 7.044 0 0 1-2.523 2.581 6.278 6.278 0 0 1-3.409.847 5.243 5.243 0 0 1-3.04-.937 5.255 5.255 0 0 1-1.88-2.5 7.866 7.866 0 0 1-.433-3.5zm2.97 1.746a3.637 3.637 0 0 0 .707 2.147 2.263 2.263 0 0 0 1.791.847 3.177 3.177 0 0 0 2.606-1.2 6.3 6.3 0 0 0 1.319-3.377l.076-1.249a4.412 4.412 0 0 0-.65-2.562 2.282 2.282 0 0 0-1.886-.981 3.3 3.3 0 0 0-3.059 1.9 7.09 7.09 0 0 0-.854 2.727 10.625 10.625 0 0 0-.051 1.748z" class="cls-2" transform="translate(354.165 -94.01)"/>
                    <path id="패스_758" d="M-224.928 100.047a5.573 5.573 0 0 0-1.185-.127 3.537 3.537 0 0 0-3.161 1.644l-1.657 9.444h-3.02l2.383-13.789 2.867-.013-.306 1.568a3.946 3.946 0 0 1 3.262-1.835 4.958 4.958 0 0 1 1.16.191z" class="cls-2" transform="translate(269.674 -93.866)"/>
                    <path id="패스_759" d="M-161.427 111.412a5.776 5.776 0 0 1-3.116-.9 5.145 5.145 0 0 1-1.95-2.37 7.047 7.047 0 0 1-.478-3.352l.038-.522a9.227 9.227 0 0 1 1.23-3.779 7.019 7.019 0 0 1 2.492-2.542 6.057 6.057 0 0 1 3.237-.828 4.517 4.517 0 0 1 3.881 1.927 7.076 7.076 0 0 1 .975 4.889l-.179 1.327h-8.679a3.746 3.746 0 0 0 .663 2.642 2.626 2.626 0 0 0 2.141 1.029 4.644 4.644 0 0 0 3.594-1.695l1.529 1.606a5.811 5.811 0 0 1-2.281 1.918 6.8 6.8 0 0 1-3.097.65zm1.287-11.827q-2.4-.076-3.594 3.39l5.722.013.051-.268a4 4 0 0 0 .013-1.147 2.346 2.346 0 0 0-.714-1.427 2.26 2.26 0 0 0-1.477-.56z" class="cls-2" transform="translate(212.175 -94.016)"/>
                </g>
            </g>
        </g>
    </g>
</svg>
