
<svg id="master-artboard" viewBox="0 0 1255.069091796875 901.6589965820312" version="1.1" xmlns="http://www.w3.org/2000/svg" x="0px" y="0px" style="enable-background:new 0 0 1400 980" width="1255.069091796875px" height="901.6589965820312px"><defs><style id="ee-google-fonts">@import url(https://fonts.googleapis.com/css?family=Anton:400|Roboto+Slab:100,300,400,700);</style><path id="text-path-0" d="M 778.8464965820312 213.4612274169922 A 100 18 0 0 1 988.3533935546875 213.4612274169922 A 100 18 0 0 1 778.8464965820312 213.4612274169922 Z" style="fill:none;stroke:red;stroke-width:2"></path><path id="text-path-1" d="M 664.5464477539062 37.96122741699219 A 100 19 0 0 1 876.5812377929688 37.96122741699219 A 100 19 0 0 1 664.5464477539062 37.96122741699219" style="fill:none;stroke:red;stroke-width:2"></path><path id="text-path-2" d="M 765.3650512695312 211.70851135253906 A 100 17 0 0 1 991.5017700195312 211.70851135253906 A 100 17 0 0 1 765.3650512695312 211.70851135253906" style="fill:none;stroke:red;stroke-width:2"></path><path id="path-1" d="M 765.3650512695312 211.70851135253906 A 100 17 0 0 1 991.5017700195312 211.70851135253906 A 100 17 0 0 1 765.3650512695312 211.70851135253906" style="fill:none;stroke:red;stroke-width:2"></path><clipPath clipPathUnits="userSpaceOnUse" id="clipPath23"><path d="M 0,841.89 H 595.28 V 0 H 0 Z" id="path21"></path></clipPath><radialGradient fx="0" fy="0" cx="0" cy="0" r="1" gradientUnits="userSpaceOnUse" gradientTransform="matrix(116.69734,31.358551,31.358551,-116.69733,261.09131,470.40723)" spreadMethod="pad" id="radialGradient63"><stop style="stop-opacity:1;stop-color:#fdd000" offset="0" id="stop49"></stop><stop style="stop-opacity:1;stop-color:#fdd000" offset="0.118851" id="stop51"></stop><stop style="stop-opacity:1;stop-color:#ef7a00" offset="0.360657" id="stop53"></stop><stop style="stop-opacity:1;stop-color:#dc5004" offset="0.590164" id="stop55"></stop><stop style="stop-opacity:1;stop-color:#b03e00" offset="0.762299" id="stop57"></stop><stop style="stop-opacity:1;stop-color:#810000" offset="0.934433" id="stop59"></stop><stop style="stop-opacity:1;stop-color:#810000" offset="1" id="stop61"></stop></radialGradient><clipPath clipPathUnits="userSpaceOnUse" id="clipPath73"><path d="M 0,841.89 H 595.28 V 0 H 0 Z" id="path71"></path></clipPath><clipPath clipPathUnits="userSpaceOnUse" id="clipPath81"><path d="M 178.188,499.131 H 320.155 V 349.091 H 178.188 Z" id="path79"></path></clipPath><radialGradient fx="0" fy="0" cx="0" cy="0" r="1" gradientUnits="userSpaceOnUse" gradientTransform="matrix(111.95427,55.427475,55.427475,-111.95425,257.69141,477.26562)" spreadMethod="pad" id="radialGradient97"><stop style="stop-opacity:1;stop-color:#af5922" offset="0" id="stop87"></stop><stop style="stop-opacity:1;stop-color:#af5922" offset="0.0819702" id="stop89"></stop><stop style="stop-opacity:1;stop-color:#9d3500" offset="0.41803" id="stop91"></stop><stop style="stop-opacity:1;stop-color:#772200" offset="0.803284" id="stop93"></stop><stop style="stop-opacity:1;stop-color:#772200" offset="1" id="stop95"></stop></radialGradient><radialGradient fx="0" fy="0" cx="0" cy="0" r="1" gradientUnits="userSpaceOnUse" gradientTransform="matrix(111.67166,41.645935,41.645935,-111.67165,259.90381,479.25684)" spreadMethod="pad" id="radialGradient113"><stop style="stop-opacity:1;stop-color:#af5922" offset="0" id="stop103"></stop><stop style="stop-opacity:1;stop-color:#af5922" offset="0.0819702" id="stop105"></stop><stop style="stop-opacity:1;stop-color:#9d3500" offset="0.41803" id="stop107"></stop><stop style="stop-opacity:1;stop-color:#772200" offset="0.803284" id="stop109"></stop><stop style="stop-opacity:1;stop-color:#772200" offset="1" id="stop111"></stop></radialGradient><radialGradient fx="0" fy="0" cx="0" cy="0" r="1" gradientUnits="userSpaceOnUse" gradientTransform="matrix(112.53978,41.969681,41.969681,-112.53976,258.20996,476.36035)" spreadMethod="pad" id="radialGradient129"><stop style="stop-opacity:1;stop-color:#af5922" offset="0" id="stop119"></stop><stop style="stop-opacity:1;stop-color:#af5922" offset="0.0819702" id="stop121"></stop><stop style="stop-opacity:1;stop-color:#9d3500" offset="0.41803" id="stop123"></stop><stop style="stop-opacity:1;stop-color:#772200" offset="0.803284" id="stop125"></stop><stop style="stop-opacity:1;stop-color:#772200" offset="1" id="stop127"></stop></radialGradient><radialGradient fx="0" fy="0" cx="0" cy="0" r="1" gradientUnits="userSpaceOnUse" gradientTransform="matrix(116.32234,43.380325,43.380325,-116.32233,256.30078,481.78125)" spreadMethod="pad" id="radialGradient145"><stop style="stop-opacity:1;stop-color:#af5922" offset="0" id="stop135"></stop><stop style="stop-opacity:1;stop-color:#af5922" offset="0.0819702" id="stop137"></stop><stop style="stop-opacity:1;stop-color:#9d3500" offset="0.41803" id="stop139"></stop><stop style="stop-opacity:1;stop-color:#772200" offset="0.803284" id="stop141"></stop><stop style="stop-opacity:1;stop-color:#772200" offset="1" id="stop143"></stop></radialGradient><linearGradient x1="0" y1="0" x2="1" y2="0" gradientUnits="userSpaceOnUse" gradientTransform="matrix(1.1818848,19.81044,19.81044,-1.1818848,319.3877,469.35205)" spreadMethod="pad" id="linearGradient247"><stop style="stop-opacity:1;stop-color:#f5a100" offset="0" id="stop239"></stop><stop style="stop-opacity:1;stop-color:#ffe000" offset="0.438522" id="stop241"></stop><stop style="stop-opacity:1;stop-color:#fff344" offset="0.694626" id="stop243"></stop><stop style="stop-opacity:1;stop-color:#fffbc9" offset="1" id="stop245"></stop></linearGradient><linearGradient x1="0" y1="0" x2="1" y2="0" gradientUnits="userSpaceOnUse" gradientTransform="matrix(1.1818542,19.809936,19.809936,-1.1818542,332.45703,468.57275)" spreadMethod="pad" id="linearGradient271"><stop style="stop-opacity:1;stop-color:#f5a100" offset="0" id="stop263"></stop><stop style="stop-opacity:1;stop-color:#ffe000" offset="0.438522" id="stop265"></stop><stop style="stop-opacity:1;stop-color:#fff344" offset="0.694626" id="stop267"></stop><stop style="stop-opacity:1;stop-color:#fffbc9" offset="1" id="stop269"></stop></linearGradient><linearGradient x1="0" y1="0" x2="1" y2="0" gradientUnits="userSpaceOnUse" gradientTransform="matrix(1.1818848,19.810364,19.810364,-1.1818848,346.04395,467.76172)" spreadMethod="pad" id="linearGradient295"><stop style="stop-opacity:1;stop-color:#f5a100" offset="0" id="stop287"></stop><stop style="stop-opacity:1;stop-color:#ffe000" offset="0.438522" id="stop289"></stop><stop style="stop-opacity:1;stop-color:#fff344" offset="0.694626" id="stop291"></stop><stop style="stop-opacity:1;stop-color:#fffbc9" offset="1" id="stop293"></stop></linearGradient><linearGradient x1="0" y1="0" x2="1" y2="0" gradientUnits="userSpaceOnUse" gradientTransform="matrix(1.1818542,19.809952,19.809952,-1.1818542,358.30176,467.03076)" spreadMethod="pad" id="linearGradient319"><stop style="stop-opacity:1;stop-color:#f5a100" offset="0" id="stop311"></stop><stop style="stop-opacity:1;stop-color:#ffe000" offset="0.438522" id="stop313"></stop><stop style="stop-opacity:1;stop-color:#fff344" offset="0.694626" id="stop315"></stop><stop style="stop-opacity:1;stop-color:#fffbc9" offset="1" id="stop317"></stop></linearGradient><linearGradient x1="0" y1="0" x2="1" y2="0" gradientUnits="userSpaceOnUse" gradientTransform="matrix(1.1818848,19.810593,19.810593,-1.1818848,370.44824,466.30566)" spreadMethod="pad" id="linearGradient343"><stop style="stop-opacity:1;stop-color:#f5a100" offset="0" id="stop335"></stop><stop style="stop-opacity:1;stop-color:#ffe000" offset="0.438522" id="stop337"></stop><stop style="stop-opacity:1;stop-color:#fff344" offset="0.694626" id="stop339"></stop><stop style="stop-opacity:1;stop-color:#fffbc9" offset="1" id="stop341"></stop></linearGradient><linearGradient x1="0" y1="0" x2="1" y2="0" gradientUnits="userSpaceOnUse" gradientTransform="matrix(1.1818695,19.810257,19.810257,-1.1818695,302.01855,470.38867)" spreadMethod="pad" id="linearGradient367"><stop style="stop-opacity:1;stop-color:#f5a100" offset="0" id="stop359"></stop><stop style="stop-opacity:1;stop-color:#ffe000" offset="0.438522" id="stop361"></stop><stop style="stop-opacity:1;stop-color:#fff344" offset="0.694626" id="stop363"></stop><stop style="stop-opacity:1;stop-color:#fffbc9" offset="1" id="stop365"></stop></linearGradient><linearGradient x1="0" y1="0" x2="1" y2="0" gradientUnits="userSpaceOnUse" gradientTransform="matrix(0.9761505,-60.103653,-68.242004,-20.902512,323.55469,461.27979)" spreadMethod="pad" id="linearGradient391"><stop style="stop-opacity:1;stop-color:#0092db" offset="0" id="stop383"></stop><stop style="stop-opacity:1;stop-color:#0092db" offset="0.139343" id="stop385"></stop><stop style="stop-opacity:1;stop-color:#005bac" offset="0.754105" id="stop387"></stop><stop style="stop-opacity:1;stop-color:#005bac" offset="1" id="stop389"></stop></linearGradient><linearGradient x1="0" y1="0" x2="1" y2="0" gradientUnits="userSpaceOnUse" gradientTransform="matrix(-6.2299652,-40.141083,-43.91777,-11.09932,425.27344,466.46631)" spreadMethod="pad" id="linearGradient415"><stop style="stop-opacity:1;stop-color:#0092db" offset="0" id="stop407"></stop><stop style="stop-opacity:1;stop-color:#0092db" offset="0.139343" id="stop409"></stop><stop style="stop-opacity:1;stop-color:#005bac" offset="0.754105" id="stop411"></stop><stop style="stop-opacity:1;stop-color:#005bac" offset="1" id="stop413"></stop></linearGradient><linearGradient x1="0" y1="0" x2="1" y2="0" gradientUnits="userSpaceOnUse" gradientTransform="matrix(-1.3206177,-46.387115,-57.91806,-20.229721,392.46289,467.19434)" spreadMethod="pad" id="linearGradient439"><stop style="stop-opacity:1;stop-color:#0092db" offset="0" id="stop431"></stop><stop style="stop-opacity:1;stop-color:#0092db" offset="0.139343" id="stop433"></stop><stop style="stop-opacity:1;stop-color:#005bac" offset="0.754105" id="stop435"></stop><stop style="stop-opacity:1;stop-color:#005bac" offset="1" id="stop437"></stop></linearGradient><linearGradient x1="0" y1="0" x2="1" y2="0" gradientUnits="userSpaceOnUse" gradientTransform="matrix(16.097443,-68.468582,-74.378509,-45.105469,281.09033,456.76953)" spreadMethod="pad" id="linearGradient463"><stop style="stop-opacity:1;stop-color:#0092db" offset="0" id="stop455"></stop><stop style="stop-opacity:1;stop-color:#0092db" offset="0.139343" id="stop457"></stop><stop style="stop-opacity:1;stop-color:#005bac" offset="0.754105" id="stop459"></stop><stop style="stop-opacity:1;stop-color:#005bac" offset="1" id="stop461"></stop></linearGradient><linearGradient x1="0" y1="0" x2="1" y2="0" gradientUnits="userSpaceOnUse" gradientTransform="matrix(-0.5566101,-51.559677,-62.176056,-16.049469,356.91406,465.41455)" spreadMethod="pad" id="linearGradient487"><stop style="stop-opacity:1;stop-color:#0092db" offset="0" id="stop479"></stop><stop style="stop-opacity:1;stop-color:#0092db" offset="0.139343" id="stop481"></stop><stop style="stop-opacity:1;stop-color:#005bac" offset="0.754105" id="stop483"></stop><stop style="stop-opacity:1;stop-color:#005bac" offset="1" id="stop485"></stop></linearGradient><linearGradient x1="0" y1="0" x2="1" y2="0" gradientUnits="userSpaceOnUse" gradientTransform="matrix(-1.1184235,-89.932724,-91.208572,1.012207,229.39795,444.73437)" spreadMethod="pad" id="linearGradient511"><stop style="stop-opacity:1;stop-color:#0092db" offset="0" id="stop503"></stop><stop style="stop-opacity:1;stop-color:#0092db" offset="0.139343" id="stop505"></stop><stop style="stop-opacity:1;stop-color:#005bac" offset="0.754105" id="stop507"></stop><stop style="stop-opacity:1;stop-color:#005bac" offset="1" id="stop509"></stop></linearGradient><linearGradient x1="0" y1="0" x2="1" y2="0" gradientUnits="userSpaceOnUse" gradientTransform="matrix(30.133697,-76.897018,-78.019257,-29.789276,217.92676,436.98633)" spreadMethod="pad" id="linearGradient537"><stop style="stop-opacity:1;stop-color:#ffffff" offset="0" id="stop527"></stop><stop style="stop-opacity:1;stop-color:#ffffff" offset="0.426224" id="stop529"></stop><stop style="stop-opacity:1;stop-color:#ffffff" offset="0.62164792" id="stop531"></stop><stop style="stop-opacity:1;stop-color:#d3edfb" offset="0.868851" id="stop533"></stop><stop style="stop-opacity:1;stop-color:#d8effc" offset="1" id="stop535"></stop></linearGradient><clipPath clipPathUnits="userSpaceOnUse" id="clipPath547"><path d="M 0,841.89 H 595.28 V 0 H 0 Z" id="path545"></path></clipPath><linearGradient x1="0" y1="0" x2="1" y2="0" gradientUnits="userSpaceOnUse" gradientTransform="matrix(0.9267731,-57.064087,-64.790863,-19.845444,327.25586,459.35645)" spreadMethod="pad" id="linearGradient627"><stop style="stop-opacity:1;stop-color:#ffffff" offset="0" id="stop617"></stop><stop style="stop-opacity:1;stop-color:#ffffff" offset="0.426224" id="stop619"></stop><stop style="stop-opacity:1;stop-color:#ffffff" offset="0.62164792" id="stop621"></stop><stop style="stop-opacity:1;stop-color:#d3edfb" offset="0.868851" id="stop623"></stop><stop style="stop-opacity:1;stop-color:#d8effc" offset="1" id="stop625"></stop></linearGradient><linearGradient x1="0" y1="0" x2="1" y2="0" gradientUnits="userSpaceOnUse" gradientTransform="matrix(-6.2555542,-40.305984,-44.09819,-11.144928,427.46191,465.11914)" spreadMethod="pad" id="linearGradient653"><stop style="stop-opacity:1;stop-color:#ffffff" offset="0" id="stop643"></stop><stop style="stop-opacity:1;stop-color:#ffffff" offset="0.426224" id="stop645"></stop><stop style="stop-opacity:1;stop-color:#ffffff" offset="0.62164792" id="stop647"></stop><stop style="stop-opacity:1;stop-color:#d3edfb" offset="0.868851" id="stop649"></stop><stop style="stop-opacity:1;stop-color:#d8effc" offset="1" id="stop651"></stop></linearGradient><linearGradient x1="0" y1="0" x2="1" y2="0" gradientUnits="userSpaceOnUse" gradientTransform="matrix(-1.2709656,-44.643097,-55.740524,-19.469147,395.18359,465.23926)" spreadMethod="pad" id="linearGradient679"><stop style="stop-opacity:1;stop-color:#ffffff" offset="0" id="stop669"></stop><stop style="stop-opacity:1;stop-color:#ffffff" offset="0.426224" id="stop671"></stop><stop style="stop-opacity:1;stop-color:#ffffff" offset="0.62164792" id="stop673"></stop><stop style="stop-opacity:1;stop-color:#d3edfb" offset="0.868851" id="stop675"></stop><stop style="stop-opacity:1;stop-color:#d8effc" offset="1" id="stop677"></stop></linearGradient><linearGradient x1="0" y1="0" x2="1" y2="0" gradientUnits="userSpaceOnUse" gradientTransform="matrix(15.384796,-65.437393,-71.085693,-43.108612,285.05957,453.52832)" spreadMethod="pad" id="linearGradient705"><stop style="stop-opacity:1;stop-color:#ffffff" offset="0" id="stop695"></stop><stop style="stop-opacity:1;stop-color:#ffffff" offset="0.426224" id="stop697"></stop><stop style="stop-opacity:1;stop-color:#ffffff" offset="0.62164792" id="stop699"></stop><stop style="stop-opacity:1;stop-color:#d3edfb" offset="0.868851" id="stop701"></stop><stop style="stop-opacity:1;stop-color:#d8effc" offset="1" id="stop703"></stop></linearGradient><linearGradient x1="0" y1="0" x2="1" y2="0" gradientUnits="userSpaceOnUse" gradientTransform="matrix(-0.5579834,-51.686859,-62.329422,-16.089066,360.99316,464.13135)" spreadMethod="pad" id="linearGradient731"><stop style="stop-opacity:1;stop-color:#ffffff" offset="0" id="stop721"></stop><stop style="stop-opacity:1;stop-color:#ffffff" offset="0.426224" id="stop723"></stop><stop style="stop-opacity:1;stop-color:#ffffff" offset="0.62164792" id="stop725"></stop><stop style="stop-opacity:1;stop-color:#d3edfb" offset="0.868851" id="stop727"></stop><stop style="stop-opacity:1;stop-color:#d8effc" offset="1" id="stop729"></stop></linearGradient><clipPath clipPathUnits="userSpaceOnUse" id="clipPath741"><path d="M 0,841.89 H 595.28 V 0 H 0 Z" id="path739"></path></clipPath></defs><rect id="ee-background" x="0" y="0" width="1255.069091796875" height="901.6589965820312" style="fill:rgb(16, 8, 36);fill-opacity:0;pointer-events:none"></rect>


<path style="fill:rgb(63, 61, 61);fill-opacity:1;stroke:rgb(0, 0, 0);stroke-opacity:1;stroke-width:0"></path><path style="fill:rgb(63, 61, 61);fill-opacity:1;stroke:rgb(0, 0, 0);stroke-opacity:1;stroke-width:0"></path><path d="M 880.3870239257812 239.90606689453125" style="fill:rgb(63, 61, 61);fill-opacity:1;stroke:rgb(0, 0, 0);stroke-opacity:1;stroke-width:0"></path><path d="M 864.144775390625 229.48651123046875" style="fill:rgb(63, 61, 61);fill-opacity:1;stroke:rgb(0, 0, 0);stroke-opacity:1;stroke-width:0"></path><path style="fill:rgb(63, 61, 61);fill-opacity:1;stroke:rgb(0, 0, 0);stroke-opacity:1;stroke-width:0"></path><path style="fill:rgb(63, 61, 61);fill-opacity:1;stroke:rgb(0, 0, 0);stroke-opacity:1;stroke-width:0"></path><path style="fill:rgb(63, 61, 61);fill-opacity:1;stroke:rgb(0, 0, 0);stroke-opacity:1;stroke-width:0"></path><path style="fill:rgb(63, 61, 61);fill-opacity:1;stroke:rgb(0, 0, 0);stroke-opacity:1;stroke-width:0"></path><g transform="matrix(2.9306406974792485, 0, 0, 2.9306406974792485, -468.96688842773426, -1053.9502878770234)"><g id="g15" transform="matrix(1.3333333,0,0,-1.3333333,0,1122.52)"><g id="g17"><g id="g19" clip-path="url(#clipPath23)"><g id="g25" transform="translate(222.1543,454.6655)"><path d="M 0,0 86.696,-41.776 31.389,34.818 C 55.364,61.343 59.295,65.469 59.295,65.469 41.897,66.401 25.036,66.312 9.181,65.573 l -35.378,48.994 C -29.522,97.256 -32.963,79.252 -36.327,61.593 -75.838,56.55 -99.509,49.787 -99.509,49.787 L -46.813,14.743 C -56.913,-30.573 -64.208,-64.043 -64.208,-64.043 -39.116,-36.054 -15.784,-17.543 0,0" style="fill:#e20012;fill-opacity:1;fill-rule:nonzero;stroke:none" id="path27"></path></g><g id="g29" transform="translate(411.6016,494.9429)"><path d="m 0,0 c 0,0 -18.986,-10.797 -27.895,-16.239 0,0 6.868,17.959 14.114,34.219 l 6.869,-38.951 -23.859,31.221 c 0,0 18.478,-3.618 30.771,-10.25" style="fill:#e60013;fill-opacity:1;fill-rule:nonzero;stroke:none" id="path31"></path></g><g id="g33" transform="translate(374.9521,506.7847)"><path d="m 0,0 c 0,0 -15.416,-13.95 -70.841,-44.425 0,0 15.212,42.495 28.009,83.521 l 37.355,-89.029 -80.127,62.614 c 0,0 41.65,-0.805 85.604,-12.681" style="fill:#e60013;fill-opacity:1;fill-rule:nonzero;stroke:none" id="path35"></path></g></g></g><g id="g37"><g id="g39"><g id="g45"><g id="g47"><path d="M 231.456,494.617 C 192.514,484.155 169.429,444.106 179.89,405.166 v 0 c 10.466,-38.94 50.514,-62.028 89.452,-51.564 v 0 c 38.943,10.464 62.027,50.512 51.566,89.451 v 0 c -8.759,32.597 -38.246,54.085 -70.463,54.083 v 0 c -6.27,0 -12.646,-0.814 -18.989,-2.519" style="fill:url(#radialGradient63);stroke:none" id="path65"></path></g></g></g></g><g id="g67"><g id="g69" clip-path="url(#clipPath73)"><g id="g75"><g id="g77"></g><g id="g189"><g clip-path="url(#clipPath81)" id="g187"><g id="g155"><g id="g153"><g id="g151"><g id="g149"><path d="m 210.526,367.127 c 0,0 -6.113,28.014 9.414,63.063 15.523,35.052 48.459,64.222 80.72,47.727 l -3.996,3.535 c 0,0 -16.08,10.621 -42.324,-3.599 -26.248,-14.22 -51.184,-48.825 -51.319,-104.64 z" style="fill:url(#radialGradient97);stroke:none" id="path147"></path></g></g></g></g><g id="g165"><g id="g163"><g id="g161"><g id="g159"><path d="m 203.241,480.3 c 0,0 16.899,9.655 48.681,1.382 31.78,-8.276 49.578,-41.515 53.642,-53.416 4.063,-11.902 11.048,-37.621 2.782,-52.442 l 7.598,7.117 c 0,0 5.875,16.727 -6.045,46.196 -11.919,29.469 -31.608,45.792 -53.317,53.536 -21.708,7.744 -43.27,6.601 -56.855,-2.938 z" style="fill:url(#radialGradient113);stroke:none" id="path157"></path></g></g></g></g><g id="g175"><g id="g173"><g id="g171"><g id="g169"><path d="m 178.188,450.113 c 0,0 10.96,18.171 41.261,22.161 30.399,4.001 46.113,-3.913 59.335,-34.81 14.299,-33.408 -5.465,-83.927 -20.392,-88.374 l 16.357,6.086 c 0,0 15.73,24.912 13.201,56.76 -2.772,34.936 -19.287,52.534 -32.772,59.018 -17.029,8.184 -51.037,6.307 -70.87,-9.473 z" style="fill:url(#radialGradient129);stroke:none" id="path167"></path></g></g></g></g><g id="g185"><g id="g183"><g id="g181"><g id="g179"><path d="m 252.711,498.69 c 0,0 1.565,-5.239 13.684,-12.755 12.12,-7.516 43.919,-19.921 53.76,-39.546 l -3.28,9.841 c 0,0 -6.031,9.4 -20.491,16.429 -14.463,7.03 -23.498,12.007 -27.413,13.654 -3.913,1.646 -11.881,8.962 -13.514,12.818 z" style="fill:url(#radialGradient145);stroke:none" id="path177"></path></g></g></g></g></g></g></g><g id="g191" transform="translate(268.6133,354.8164)"><path d="m 0,0 c -38.526,-10.35 -78.145,12.49 -88.495,51.016 -10.353,38.524 12.486,78.145 51.012,88.496 C 1.041,149.863 40.663,127.022 51.015,88.498 61.364,49.973 38.524,10.352 0,0 M -39.144,142.695 C -80.37,131.618 -104.811,89.218 -93.735,47.993 -82.658,6.768 -40.257,-17.672 0.967,-6.596 42.192,4.482 66.632,46.881 55.556,88.105 c -11.078,41.227 -53.475,65.667 -94.7,54.59" style="fill:#540000;fill-opacity:1;fill-rule:nonzero;stroke:none" id="path193"></path></g><g id="g195" transform="translate(432.8701,449.9067)"><path d="m 0,0 3.981,3.98 c 0,0 2.245,1.711 1.188,5.1 -3.477,11.124 -10.268,12.641 -17.146,11.74 -2.395,-0.313 -4.91,-1.342 -6.317,-2.616 -0.205,2.181 -3.574,2.999 -3.574,2.999 -6.211,1.035 -31.655,0.14 -36.659,-0.204 -3.031,-0.209 -3.781,-1.748 -3.903,-2.927 -3.978,2.074 -9.391,3.04 -16.061,2.145 -1.792,-0.241 -98.317,-10.086 -100.301,-12.07 -1.985,-1.983 -2.52,-4.811 -2.52,-4.811 0,0 -26.049,11.73 -48.993,-6.383 -22.944,-18.112 -23.633,-42.264 -22.598,-55.893 1.035,-13.627 9.315,-42.264 38.814,-45.887 29.499,-3.623 42.696,16.043 42.696,16.043 25.015,13.973 68.441,35.034 77.112,38.297 8.515,3.206 8.594,7.043 8.238,9.447 3.322,-1.859 7.564,-3.814 14.274,-2.718 6.721,1.096 12.124,4.668 15.12,8.803 2.042,-2.874 5.245,-2.131 5.245,-2.131 10.468,2.731 19.853,4.973 28.8,7.473 2,0.558 2.834,1.494 3.607,2.864 1.466,-1.328 3.763,-2.955 8.311,-2.864 C -0.14,-29.404 4.688,-19.53 5.377,-11.594 6.067,-3.658 0,0 0,0" style="fill:#0b0059;fill-opacity:1;fill-rule:nonzero;stroke:none" id="path197"></path></g><g id="g199" transform="translate(293.499,461.0708)"><path d="m 0,0 c 0,0 -5.956,1.659 -5.892,11.752 0.065,10.091 0.631,18.597 10.14,20.538 9.51,1.94 14.258,-3.231 14.258,-3.231 0,0 1.319,2.85 7.437,2.92 5.049,0.057 51.856,-3.495 51.856,-3.495 0,0 7.385,-0.097 7.575,-7.488 0.188,-7.391 0.17,-14.506 0.17,-14.506 z" style="fill:#0b0059;fill-opacity:1;fill-rule:nonzero;stroke:none" id="path201"></path></g><g id="g203" transform="translate(317.4297,474.5015)"><path d="m 0,0 c 0.055,-0.909 0.148,-1.63 0.275,-2.161 0.131,-0.533 0.307,-0.899 0.545,-1.095 0.232,-0.201 0.542,-0.287 0.931,-0.267 0.384,0.021 0.688,0.143 0.917,0.365 0.225,0.224 0.394,0.609 0.505,1.154 0.104,0.543 0.173,1.273 0.19,2.187 C 3.381,1.096 3.379,2.246 3.355,3.63 3.328,5.013 3.291,6.158 3.235,7.07 3.182,7.98 3.089,8.7 2.962,9.232 2.832,9.763 2.647,10.127 2.414,10.326 2.182,10.523 1.871,10.613 1.485,10.596 1.102,10.573 0.795,10.449 0.571,10.227 0.343,10.002 0.176,9.619 0.065,9.074 -0.043,8.53 -0.106,7.799 -0.13,6.886 -0.148,5.971 -0.142,4.822 -0.116,3.441 -0.093,2.057 -0.055,0.911 0,0 m -5.145,8.083 c 0.211,1.365 0.588,2.494 1.122,3.376 0.54,0.888 1.251,1.548 2.145,1.993 0.893,0.443 1.992,0.699 3.294,0.771 1.307,0.07 2.415,-0.067 3.32,-0.41 C 5.645,13.468 6.381,12.884 6.948,12.059 7.52,11.235 7.931,10.152 8.196,8.811 8.459,7.469 8.61,5.84 8.644,3.918 8.682,1.996 8.594,0.354 8.381,-1.014 8.166,-2.381 7.793,-3.509 7.257,-4.391 6.724,-5.276 6.01,-5.924 5.112,-6.342 4.22,-6.753 3.121,-6.994 1.814,-7.066 c -1.304,-0.073 -2.409,0.05 -3.317,0.367 -0.907,0.315 -1.642,0.884 -2.209,1.709 -0.567,0.826 -0.986,1.909 -1.245,3.249 -0.268,1.338 -0.416,2.971 -0.456,4.892 -0.033,1.92 0.057,3.563 0.268,4.932" style="fill:#a60001;fill-opacity:1;fill-rule:nonzero;stroke:none" id="path205"></path></g><g id="g207" transform="translate(325.8027,488.4541)"><path d="m 0,0 4.881,-0.006 2.427,-7.362 0.05,0.007 2.416,7.29 4.205,0.033 -4.19,-10.978 0.282,-8.392 -4.71,-0.587 0.022,8.809 z" style="fill:#a60001;fill-opacity:1;fill-rule:nonzero;stroke:none" id="path209"></path></g><g id="g211" transform="translate(345.0654,483.5439)"><path d="M 0,0 -0.767,-6.737 1.467,-6.63 0.045,1.536 Z m 2.433,4.652 4.326,-17.665 -4.059,-0.511 -0.609,3.825 -3.174,-0.15 -0.277,-3.842 -4.474,-0.446 3.238,18.959 z" style="fill:#a60001;fill-opacity:1;fill-rule:nonzero;stroke:none" id="path213"></path></g><g id="g215" transform="translate(357.2646,487.689)"><path d="m 0,0 3.371,-10.495 -0.442,10.36 3.516,-0.273 0.222,-15.953 -3.869,-0.23 -2.959,9.546 0.629,-9.69 -4.283,-0.217 -0.58,17.292 z" style="fill:#a60001;fill-opacity:1;fill-rule:nonzero;stroke:none" id="path217"></path></g><g id="g219" transform="translate(375.3174,479.9077)"><path d="m 0,0 0.035,-7.829 -2.676,-0.021 0.06,1.402 -0.039,0.001 C -2.74,-6.751 -2.909,-7 -3.131,-7.193 -3.351,-7.384 -3.599,-7.527 -3.868,-7.615 -4.146,-7.704 -4.44,-7.764 -4.753,-7.79 c -0.316,-0.028 -0.634,-0.036 -0.951,-0.021 -0.952,0.039 -1.703,0.229 -2.25,0.568 -0.547,0.341 -0.966,0.829 -1.251,1.473 -0.282,0.645 -0.461,1.434 -0.538,2.364 -0.081,0.93 -0.12,1.995 -0.123,3.192 -0.006,1.212 0.062,2.277 0.195,3.2 0.136,0.922 0.406,1.692 0.796,2.306 0.394,0.616 0.935,1.075 1.63,1.375 0.694,0.299 1.588,0.426 2.688,0.382 0.65,-0.029 1.258,-0.14 1.814,-0.339 0.557,-0.195 1.035,-0.501 1.437,-0.908 0.405,-0.406 0.72,-0.919 0.949,-1.542 0.231,-0.621 0.349,-1.368 0.35,-2.242 L -3.617,2.17 C -3.62,2.936 -3.689,3.496 -3.821,3.851 -3.96,4.273 -4.252,4.495 -4.69,4.511 -4.997,4.524 -5.24,4.462 -5.423,4.32 -5.602,4.182 -5.732,3.924 -5.82,3.55 -5.905,3.177 -5.958,2.673 -5.982,2.035 -6.01,1.396 -6.019,0.593 -6.012,-0.375 c 0.003,-0.968 0.019,-1.773 0.043,-2.411 0.032,-0.642 0.091,-1.152 0.18,-1.533 0.09,-0.378 0.216,-0.645 0.383,-0.802 0.169,-0.154 0.392,-0.237 0.676,-0.251 0.201,-0.006 0.374,0.026 0.529,0.1 0.153,0.075 0.284,0.221 0.389,0.439 0.108,0.217 0.191,0.521 0.247,0.918 0.058,0.393 0.087,0.9 0.084,1.518 l -1.322,0.056 -0.01,2.541 z" style="fill:#a60001;fill-opacity:1;fill-rule:nonzero;stroke:none" id="path221"></path></g><g id="g223" transform="translate(309.7354,481.1655)"><path d="m 0,0 c 0,0 0.989,7.525 -7.066,7.467 -8.057,-0.058 -9.405,-4.198 -9.505,-9.502 -0.097,-5.186 -1.269,-14.95 7.745,-14.129 0,0 2.548,0.019 4.528,2.413 l 0.072,-1.237 4.091,0.193 0.106,11.765 -7.79,-0.366 -0.035,-3.822 2.14,0.103 c -0.006,-0.932 -0.06,-1.697 -0.165,-2.298 -0.103,-0.6 -0.241,-1.071 -0.418,-1.414 -0.176,-0.34 -0.391,-0.579 -0.641,-0.711 -0.25,-0.133 -0.534,-0.208 -0.861,-0.225 -0.452,-0.018 -0.814,0.075 -1.085,0.285 -0.269,0.209 -0.471,0.594 -0.607,1.153 -0.135,0.558 -0.221,1.319 -0.255,2.276 -0.034,0.959 -0.043,2.164 -0.03,3.621 0.013,1.454 0.041,2.663 0.097,3.626 0.051,0.963 0.151,1.731 0.294,2.303 0.146,0.571 0.366,0.976 0.659,1.214 0.299,0.234 0.693,0.365 1.194,0.388 0.711,0.033 1.173,-0.259 1.386,-0.874 0.21,-0.517 0.313,-1.351 0.297,-2.501 z" style="fill:#a60001;fill-opacity:1;fill-rule:nonzero;stroke:none" id="path225"></path></g></g></g><g id="g227"><g id="g229"><g id="g235"><g id="g237"><path d="m 319.681,488.307 c -1.302,-0.071 -2.401,-0.329 -3.296,-0.771 v 0 c -0.893,-0.444 -1.606,-1.105 -2.144,-1.993 v 0 c -0.534,-0.881 -0.91,-2.01 -1.123,-3.375 v 0 c -0.21,-1.369 -0.3,-3.012 -0.267,-4.932 v 0 c 0.038,-1.922 0.189,-3.554 0.455,-4.893 v 0 c 0.259,-1.34 0.68,-2.422 1.245,-3.249 v 0 c 0.568,-0.825 1.302,-1.395 2.21,-1.709 v 0 c 0.907,-0.317 2.013,-0.439 3.317,-0.367 v 0 c 1.307,0.072 2.406,0.313 3.299,0.725 v 0 c 0.898,0.416 1.61,1.065 2.143,1.95 v 0 c 0.536,0.883 0.91,2.01 1.125,3.378 v 0 c 0.212,1.368 0.301,3.009 0.262,4.931 v 0 c -0.033,1.922 -0.184,3.551 -0.446,4.894 v 0 c -0.266,1.34 -0.678,2.424 -1.249,3.246 v 0 c -0.568,0.826 -1.304,1.41 -2.212,1.755 v 0 c -0.751,0.285 -1.643,0.428 -2.67,0.428 v 0 c -0.211,0 -0.427,-0.006 -0.649,-0.018 m -0.597,-17.479 c -0.237,0.196 -0.414,0.562 -0.545,1.095 v 0 c -0.126,0.531 -0.22,1.252 -0.275,2.162 v 0 c -0.055,0.91 -0.092,2.056 -0.118,3.44 v 0 c -0.025,1.382 -0.03,2.531 -0.012,3.445 v 0 c 0.024,0.913 0.087,1.644 0.194,2.188 v 0 c 0.112,0.545 0.279,0.929 0.507,1.153 v 0 c 0.225,0.222 0.53,0.346 0.915,0.37 v 0 c 0.385,0.017 0.696,-0.072 0.929,-0.271 v 0 c 0.232,-0.198 0.418,-0.563 0.546,-1.094 v 0 c 0.127,-0.532 0.22,-1.251 0.275,-2.162 v 0 c 0.054,-0.911 0.092,-2.057 0.12,-3.44 v 0 c 0.023,-1.384 0.026,-2.533 0.008,-3.447 v 0 c -0.018,-0.914 -0.086,-1.644 -0.192,-2.187 v 0 c -0.111,-0.546 -0.279,-0.93 -0.503,-1.154 v 0 c -0.229,-0.222 -0.535,-0.344 -0.918,-0.366 v 0 c -0.036,-10e-4 -0.071,-0.002 -0.106,-0.002 v 0 c -0.339,0 -0.614,0.088 -0.825,0.27" style="fill:url(#linearGradient247);stroke:none" id="path249"></path></g></g></g></g><g id="g251"><g id="g253"><g id="g259"><g id="g261"><path d="m 332.021,476.99 -0.023,-8.808 4.709,0.586 -0.282,8.391 4.19,10.979 -4.205,-0.033 -2.415,-7.291 -0.051,-0.006 -2.426,7.361 -4.881,0.007 z" style="fill:url(#linearGradient271);stroke:none" id="path273"></path></g></g></g></g><g id="g275"><g id="g277"><g id="g283"><g id="g285"><path d="m 339.858,469.059 4.472,0.446 0.278,3.843 3.175,0.149 0.609,-3.826 4.059,0.511 -4.326,17.666 -5.03,0.171 z m 5.834,14.138 0.043,1.536 1.424,-8.168 -2.234,-0.106 z" style="fill:url(#linearGradient295);stroke:none" id="path297"></path></g></g></g></g><g id="g299"><g id="g301"><g id="g307"><g id="g309"><path d="m 354.075,470.251 4.284,0.216 -0.63,9.688 2.96,-9.544 3.869,0.229 -0.222,15.955 -3.516,0.271 0.441,-10.359 -3.37,10.495 -4.394,0.34 z" style="fill:url(#linearGradient319);stroke:none" id="path321"></path></g></g></g></g><g id="g323"><g id="g325"><g id="g331"><g id="g333"><path d="m 368.699,486.227 c -0.696,-0.301 -1.238,-0.759 -1.63,-1.375 v 0 c -0.39,-0.614 -0.66,-1.384 -0.797,-2.305 v 0 c -0.133,-0.924 -0.2,-1.989 -0.195,-3.202 v 0 c 0.002,-1.196 0.042,-2.26 0.122,-3.191 v 0 c 0.078,-0.931 0.257,-1.718 0.539,-2.364 v 0 c 0.285,-0.644 0.705,-1.132 1.252,-1.473 v 0 c 0.545,-0.338 1.297,-0.529 2.25,-0.568 v 0 c 0.317,-0.015 0.634,-0.008 0.951,0.021 v 0 c 0.312,0.026 0.607,0.086 0.883,0.176 v 0 c 0.27,0.087 0.519,0.229 0.738,0.421 v 0 c 0.222,0.194 0.391,0.442 0.512,0.746 v 0 l 0.038,-0.002 -0.059,-1.4 2.676,0.019 -0.036,7.83 -4.813,0.201 0.01,-2.541 1.322,-0.058 c 0.004,-0.617 -0.026,-1.124 -0.084,-1.517 v 0 c -0.057,-0.396 -0.139,-0.702 -0.246,-0.918 v 0 c -0.104,-0.217 -0.237,-0.364 -0.39,-0.44 v 0 c -0.155,-0.072 -0.329,-0.106 -0.529,-0.099 v 0 c -0.283,0.013 -0.507,0.097 -0.675,0.251 v 0 c -0.168,0.156 -0.295,0.424 -0.382,0.802 v 0 c -0.091,0.381 -0.149,0.891 -0.181,1.533 v 0 c -0.026,0.638 -0.041,1.444 -0.043,2.411 v 0 c -0.007,0.968 10e-4,1.771 0.029,2.409 v 0 c 0.025,0.639 0.077,1.143 0.161,1.516 v 0 c 0.088,0.374 0.22,0.631 0.398,0.77 v 0 c 0.183,0.142 0.425,0.205 0.733,0.19 v 0 c 0.438,-0.015 0.73,-0.237 0.868,-0.66 v 0 c 0.132,-0.354 0.204,-0.915 0.205,-1.681 v 0 l 3.61,-0.152 c -0.002,0.874 -0.118,1.621 -0.35,2.243 v 0 c -0.229,0.623 -0.544,1.136 -0.948,1.542 v 0 c -0.403,0.407 -0.881,0.713 -1.438,0.908 v 0 c -0.556,0.199 -1.165,0.311 -1.813,0.339 v 0 c -0.14,0.006 -0.277,0.009 -0.411,0.009 v 0 c -0.914,0 -1.673,-0.13 -2.277,-0.391" style="fill:url(#linearGradient343);stroke:none" id="path345"></path></g></g></g></g><g id="g347"><g id="g349"><g id="g355"><g id="g357"><path d="m 303.432,488.216 c -8.055,-0.059 -9.403,-4.2 -9.502,-9.502 v 0 c -0.098,-5.186 -1.27,-14.951 7.745,-14.129 v 0 c 0,0 2.548,0.018 4.527,2.412 v 0 l 0.073,-1.236 4.09,0.192 0.104,11.765 -7.789,-0.365 -0.034,-3.823 2.14,0.103 c -0.006,-0.931 -0.059,-1.696 -0.167,-2.297 v 0 c -0.103,-0.6 -0.239,-1.073 -0.415,-1.415 v 0 c -0.177,-0.341 -0.392,-0.58 -0.644,-0.711 v 0 c -0.247,-0.133 -0.533,-0.208 -0.858,-0.224 v 0 c -0.454,-0.019 -0.814,0.074 -1.085,0.285 v 0 c -0.269,0.209 -0.472,0.593 -0.608,1.153 v 0 c -0.136,0.558 -0.222,1.318 -0.255,2.275 v 0 c -0.035,0.958 -0.044,2.163 -0.032,3.621 v 0 c 0.014,1.455 0.044,2.664 0.098,3.627 v 0 c 0.051,0.962 0.153,1.729 0.295,2.303 v 0 c 0.145,0.57 0.367,0.975 0.66,1.213 v 0 c 0.297,0.234 0.692,0.365 1.192,0.388 v 0 c 0.711,0.033 1.174,-0.259 1.389,-0.874 v 0 c 0.208,-0.517 0.31,-1.351 0.297,-2.501 v 0 l 5.848,0.273 c 0,0 0.98,7.467 -6.977,7.467 v 0 c -0.031,0 -0.061,0 -0.092,0" style="fill:url(#linearGradient367);stroke:none" id="path369"></path></g></g></g></g><g id="g371"><g id="g373"><g id="g379"><g id="g381"><path d="m 326.511,462.74 c -3.821,-0.177 -11.945,-1.774 -14.955,-1.954 v 0 c 0,0 6.107,-2.193 7.519,-6.466 v 0 c 1.059,-3.204 2.57,-31.666 2.527,-50.91 v 0 l 3.487,-2.111 8.882,6.351 c 0,0 -0.283,17.272 -0.729,27.816 v 0 c -0.445,10.544 2.359,23.45 2.359,23.45 v 0 c 0,0 -3.356,3.835 -8.594,3.835 v 0 c -0.164,0 -0.329,-0.004 -0.496,-0.011" style="fill:url(#linearGradient391);stroke:none" id="path393"></path></g></g></g></g><g id="g395"><g id="g397"><g id="g403"><g id="g405"><path d="m 412.694,457.189 c -0.671,-2.544 -0.711,-8.066 3.317,-11.438 v 0 c 4.023,-3.377 8.407,-3.452 8.419,-7.635 v 0 c 0.014,-4.183 -3.488,-4.847 -4.293,-4.709 v 0 c -0.583,0.1 -3.435,0.934 -1.933,3.78 v 0 c 0.056,0.109 -2.079,1.22 -2.298,1.37 v 0 l -4.446,-3.982 c 0,0 0.222,-6.878 5.387,-8.202 v 0 c 5.166,-1.322 11.367,2.902 13.75,7.803 v 0 c 2.388,4.902 2.367,9.012 -0.429,12.073 v 0 c -2.787,3.063 -9.605,2.642 -8.695,8.62 v 0 c 0.714,4.723 8.299,6.399 7.107,-0.587 v 0 l 2.323,-1.323 3.659,7.109 c 0,0 -1.873,6.14 -9.704,6.234 v 0 c -0.067,0 -0.135,10e-4 -0.202,10e-4 v 0 c -8.659,10e-4 -11.295,-6.594 -11.962,-9.114" style="fill:url(#linearGradient415);stroke:none" id="path417"></path></g></g></g></g><g id="g419"><g id="g421"><g id="g427"><g id="g429"><path d="m 394.573,466.064 c 0,0 2.384,-0.351 2.773,-3.287 v 0 c 0.397,-2.935 0.85,-12.828 1.126,-17.456 v 0 c 0,0 -7.532,13.475 -8.356,19.474 v 0 c -0.015,0.101 -3.77,1.531 -4.047,1.808 v 0 c 0,0 -4.518,-0.123 -11.418,-0.469 v 0 c 0,0 4.522,-2.494 5.556,-6.368 v 0 c 1.162,-4.353 1.758,-18.08 -0.366,-40.317 v 0 l 3.325,-1.269 7.298,4.063 c 0,0 1.327,20.047 -0.575,25.348 v 0 c 0,0 5.839,-11.743 8.119,-23.653 v 0 l 3.497,-1.268 4.171,2.881 c 0,0 6.268,19.715 3.425,39.73 v 0 c -0.041,0.305 -2.916,1.273 -3.425,1.542 v 0 z" style="fill:url(#linearGradient439);stroke:none" id="path441"></path></g></g></g></g><g id="g443"><g id="g445"><g id="g451"><g id="g453"><path d="m 281.981,455.415 c -9.064,-1.97 -22.168,-4.996 -22.168,-4.996 v 0 c 1.369,-0.372 4.492,-2.246 5.552,-2.759 v 0 c 2.732,-1.328 3.586,-2.365 4.032,-5.008 v 0 c 0.553,-3.259 1.505,-17.735 2.379,-27.256 v 0 c 0.488,-5.361 2.045,-22.459 1.866,-27.853 v 0 c -0.18,-5.392 -3.123,-8.924 -3.123,-8.924 v 0 c 0.174,0.154 1.205,-0.43 2.218,-1.015 v 0 c 0.996,-0.576 1.974,-1.151 2.1,-1.022 v 0 c 3.557,3.653 11.34,10.498 12.919,11.433 v 0 c 1.941,1.145 1.102,5.551 1.207,7.432 v 0 c 0.112,1.884 -0.481,21.435 -0.481,21.435 v 0 c 0,0 11.745,-15.847 12.711,-17.566 v 0 c 1.165,-2.07 -0.995,-5.185 -0.995,-5.185 v 0 c 0,0 4.196,-2.131 4.415,-1.951 v 0 c 2.505,2.078 6.015,6.735 7.652,7.548 v 0 c 2.44,1.21 1.024,2.937 1.024,2.937 v 0 l -12.406,19.289 c 5.761,3.026 8.502,8.492 10.306,14.201 v 0 c 1.8,5.709 3.85,11.716 -4.561,17.832 v 0 c -3.132,2.278 -7.201,3.106 -11.633,3.106 v 0 c -4.173,0 -8.669,-0.733 -13.014,-1.678 m 11.459,-11.306 c 3.429,0.667 6.994,0.599 8.851,-4.265 v 0 c 2.787,-7.302 -4.634,-12.198 -14.83,-14.765 v 0 c 0,0 -1.099,7.871 -1.279,9.328 v 0 c -0.213,1.704 -0.696,7.313 -4.082,7.084 v 0 c 0,0 8.132,1.993 11.34,2.618" style="fill:url(#linearGradient463);stroke:none" id="path465"></path></g></g></g></g><g id="g467"><g id="g469"><g id="g475"><g id="g477"><path d="m 353.358,465.034 c -5.182,-1.785 -9.798,-3.796 -13.135,-14.081 v 0 c -4.055,-12.5 0.847,-25.188 2.169,-28.407 v 0 c 1.016,-2.482 6.699,-11.026 18.368,-7.551 v 0 c 11.668,3.475 13.346,21.458 13.572,24.444 v 0 c 0.233,2.987 2.588,21.227 -8.399,25.34 v 0 c 0,0 -3.118,1.12 -7.046,1.12 v 0 c -1.75,0 -3.661,-0.222 -5.529,-0.865 m -0.113,-34.293 c -0.45,1.417 -2.335,9.163 -0.728,15.449 v 0 c 1.045,4.071 3.034,6.494 5.499,7.891 v 0 c 2.343,1.33 4.432,0.107 4.432,0.107 v 0 c 4.947,-2.514 5.149,-12.677 5.099,-14.39 v 0 c -0.041,-1.711 -0.611,-12.831 -5.947,-15.292 v 0 c -0.761,-0.351 -1.466,-0.504 -2.116,-0.504 v 0 c -3.908,-0.001 -5.851,5.522 -6.239,6.739" style="fill:url(#linearGradient487);stroke:none" id="path489"></path></g></g></g></g><g id="g491"><g id="g493"><g id="g499"><g id="g501"><path d="m 225.886,445.987 c -20.478,-4.276 -36.139,-26.605 -35.335,-51.698 v 0 c 0.803,-25.094 20.475,-43.863 40.952,-39.588 v 0 c 20.477,4.277 38.404,24.397 35.288,54.602 v 0 c -2.296,22.251 -16.726,37.374 -34.331,37.375 v 0 c -2.15,0 -4.346,-0.226 -6.574,-0.691 m -8.195,-53.827 -18.7,10.783 21.318,10.176 4.951,27.777 10.877,-23.672 5.402,-2.445 16.234,7.943 -14.597,-22.856 9.589,-24.096 -20.966,8.402 -15.154,-21.61 z" style="fill:url(#linearGradient511);stroke:none" id="path513"></path></g></g></g></g><g id="g515"><g id="g517"><g id="g523"><g id="g525"><path d="m 231.524,442.47 c -20.037,-4.129 -35.652,-27.065 -34.88,-51.23 v 0 c 0.771,-24.164 17.641,-40.402 37.679,-36.275 v 0 c 20.037,4.129 35.654,27.068 34.88,51.23 v 0 c -0.692,21.633 -14.285,36.915 -31.503,36.916 v 0 c -2.015,0 -4.077,-0.209 -6.176,-0.641 m -8.047,-51.839 -20.574,12.295 23.151,7.891 5.133,25.254 10.352,-21.292 20.114,5.381 -13.237,-22.094 8.546,-23.134 -19.686,8.015 -17.406,-21.574 z" style="fill:url(#linearGradient537);stroke:none" id="path539"></path></g></g></g></g><g id="g541"><g id="g543" clip-path="url(#clipPath547)"><g id="g549" transform="translate(329.7598,389.4258)"><path d="m 0,0 -0.08,-2.494 0.867,0.289 c 0.515,0.172 0.835,0.291 0.961,0.355 0.228,0.12 0.41,0.307 0.547,0.561 0.136,0.254 0.209,0.553 0.22,0.896 C 2.524,-0.064 2.478,0.184 2.372,0.354 2.268,0.521 2.105,0.594 1.888,0.566 1.757,0.549 1.381,0.441 0.759,0.242 Z m -0.137,-4.295 -0.096,-2.91 1.226,0.437 c 0.477,0.172 0.782,0.301 0.91,0.393 0.2,0.129 0.365,0.328 0.494,0.602 0.132,0.269 0.205,0.595 0.217,0.976 0.01,0.32 -0.029,0.578 -0.118,0.77 C 2.409,-3.836 2.275,-3.721 2.099,-3.682 1.922,-3.641 1.532,-3.723 0.93,-3.93 Z m -1.125,5.672 2.614,0.811 c 0.515,0.16 0.9,0.246 1.153,0.254 C 2.757,2.451 2.979,2.377 3.174,2.219 3.366,2.061 3.525,1.82 3.647,1.496 3.77,1.173 3.824,0.783 3.81,0.328 3.795,-0.166 3.697,-0.647 3.52,-1.115 3.34,-1.586 3.107,-1.973 2.817,-2.275 3.211,-2.33 3.507,-2.547 3.708,-2.928 3.908,-3.309 3.998,-3.805 3.979,-4.42 3.963,-4.904 3.879,-5.4 3.727,-5.908 3.572,-6.418 3.371,-6.854 3.122,-7.217 2.873,-7.582 2.571,-7.859 2.218,-8.053 1.994,-8.174 1.461,-8.393 0.616,-8.715 l -2.235,-0.82 z" style="fill:#7d7d7d;fill-opacity:1;fill-rule:nonzero;stroke:none" id="path551"></path></g><g id="g553" transform="translate(337.3955,386.8887)"><path d="m 0,0 c -0.163,-0.141 -0.422,-0.332 -0.774,-0.574 -0.353,-0.24 -0.585,-0.438 -0.696,-0.59 -0.169,-0.244 -0.259,-0.51 -0.268,-0.797 -0.008,-0.283 0.05,-0.506 0.175,-0.664 0.125,-0.158 0.288,-0.201 0.492,-0.129 0.226,0.082 0.445,0.279 0.659,0.592 0.157,0.236 0.265,0.494 0.321,0.771 0.037,0.182 0.065,0.514 0.078,0.993 z M -1.631,1.047 -2.761,0.99 c 0.152,0.781 0.389,1.398 0.713,1.853 0.321,0.453 0.792,0.78 1.407,0.981 C -0.08,4.006 0.333,4.035 0.601,3.918 0.868,3.799 1.053,3.597 1.155,3.314 1.257,3.031 1.295,2.462 1.27,1.605 L 1.187,-0.713 c -0.02,-0.66 -0.015,-1.141 0.014,-1.439 0.031,-0.301 0.097,-0.612 0.196,-0.93 L 0.151,-3.539 c -0.028,0.121 -0.062,0.305 -0.102,0.549 -0.017,0.109 -0.029,0.183 -0.036,0.219 -0.226,-0.413 -0.464,-0.747 -0.714,-1.004 -0.25,-0.258 -0.513,-0.438 -0.792,-0.539 -0.488,-0.182 -0.867,-0.108 -1.137,0.218 -0.267,0.328 -0.391,0.821 -0.371,1.477 0.013,0.435 0.09,0.846 0.229,1.228 0.138,0.385 0.326,0.707 0.563,0.967 0.236,0.26 0.574,0.529 1.013,0.815 0.592,0.375 1.005,0.677 1.235,0.906 L 0.046,1.494 C 0.058,1.877 0.006,2.129 -0.108,2.252 -0.223,2.376 -0.445,2.381 -0.775,2.271 -0.999,2.197 -1.175,2.067 -1.305,1.887 -1.434,1.705 -1.543,1.426 -1.631,1.047" style="fill:#7d7d7d;fill-opacity:1;fill-rule:nonzero;stroke:none" id="path555"></path></g><g id="g557" transform="translate(339.291,386.1055)"><path d="M 0,0 1.27,0.75 C 1.312,0.387 1.412,0.137 1.569,-0.004 1.729,-0.143 1.955,-0.158 2.251,-0.053 2.576,0.066 2.823,0.246 2.994,0.49 3.107,0.66 3.167,0.852 3.175,1.07 3.179,1.217 3.152,1.328 3.096,1.404 3.035,1.475 2.897,1.51 2.683,1.512 1.679,1.502 1.046,1.596 0.782,1.791 0.419,2.061 0.248,2.555 0.27,3.268 0.288,3.91 0.466,4.504 0.804,5.047 1.142,5.586 1.65,5.968 2.332,6.189 2.98,6.4 3.458,6.396 3.765,6.176 4.071,5.957 4.273,5.552 4.375,4.959 L 3.182,4.225 C 3.139,4.492 3.049,4.678 2.912,4.781 2.775,4.885 2.575,4.893 2.314,4.807 1.983,4.695 1.744,4.546 1.598,4.355 1.498,4.221 1.446,4.074 1.442,3.911 1.438,3.773 1.478,3.67 1.557,3.6 1.667,3.508 2.053,3.459 2.714,3.453 3.376,3.447 3.835,3.322 4.091,3.074 4.343,2.822 4.461,2.393 4.443,1.779 4.424,1.111 4.225,0.469 3.847,-0.145 3.468,-0.764 2.922,-1.205 2.208,-1.469 1.561,-1.707 1.053,-1.691 0.688,-1.416 0.323,-1.141 0.093,-0.668 0,0" style="fill:#7d7d7d;fill-opacity:1;fill-rule:nonzero;stroke:none" id="path559"></path></g><g id="g561" transform="translate(344.6318,385.9551)"><path d="M 0,0 0.282,9.941 1.535,10.329 1.392,5.123 2.93,8.111 4.474,8.615 2.783,5.504 4.399,1.617 3.041,1.119 1.938,3.903 1.324,2.771 1.259,0.463 Z" style="fill:#7d7d7d;fill-opacity:1;fill-rule:nonzero;stroke:none" id="path563"></path></g><g id="g565" transform="translate(352.6191,392.9023)"><path d="M 0,0 C 0.004,0.523 -0.079,0.892 -0.25,1.105 -0.422,1.318 -0.637,1.383 -0.893,1.297 -1.166,1.207 -1.396,0.985 -1.583,0.634 -1.77,0.282 -1.867,-0.145 -1.878,-0.645 Z m -0.12,-1.869 1.244,0.14 C 0.946,-2.451 0.679,-3.051 0.322,-3.527 c -0.357,-0.479 -0.798,-0.814 -1.319,-1.007 -0.827,-0.304 -1.429,-0.13 -1.804,0.526 -0.295,0.529 -0.429,1.283 -0.404,2.259 0.032,1.163 0.262,2.14 0.689,2.931 0.428,0.786 0.956,1.279 1.584,1.482 C -0.227,2.895 0.32,2.74 0.711,2.205 1.103,1.672 1.271,0.713 1.219,-0.678 l -3.15,-1.103 c -0.006,-0.545 0.085,-0.936 0.271,-1.172 0.185,-0.236 0.423,-0.301 0.713,-0.195 0.197,0.07 0.364,0.209 0.504,0.414 0.137,0.205 0.246,0.492 0.323,0.865" style="fill:#7d7d7d;fill-opacity:1;fill-rule:nonzero;stroke:none" id="path567"></path></g><g id="g569" transform="translate(357.042,397.1592)"><path d="m 0,0 -0.034,-1.403 -0.858,-0.286 -0.067,-2.713 c -0.014,-0.55 -0.015,-0.87 0,-0.954 0.015,-0.086 0.05,-0.149 0.107,-0.187 0.056,-0.04 0.127,-0.044 0.21,-0.013 0.117,0.041 0.286,0.159 0.51,0.352 l 0.073,-1.345 c -0.298,-0.286 -0.63,-0.497 -1.002,-0.634 -0.225,-0.084 -0.429,-0.105 -0.609,-0.062 -0.179,0.042 -0.309,0.135 -0.39,0.277 -0.081,0.143 -0.132,0.358 -0.158,0.641 -0.022,0.2 -0.023,0.621 -0.008,1.257 l 0.075,2.958 -0.578,-0.194 0.037,1.428 0.576,0.19 0.032,1.333 1.283,1.424 -0.056,-2.349 z" style="fill:#7d7d7d;fill-opacity:1;fill-rule:nonzero;stroke:none" id="path571"></path></g><g id="g573" transform="translate(358.9375,394.6523)"><path d="m 0,0 c -0.017,-0.686 0.05,-1.166 0.197,-1.439 0.206,-0.391 0.49,-0.519 0.851,-0.389 0.278,0.099 0.517,0.349 0.722,0.748 0.203,0.396 0.312,0.945 0.328,1.647 C 2.115,1.313 2.03,1.815 1.841,2.077 1.65,2.34 1.404,2.421 1.097,2.319 0.797,2.219 0.542,1.975 0.335,1.584 0.127,1.191 0.018,0.664 0,0 M -1.332,-3.927 -1.111,5.25 0.141,5.637 0.066,2.387 C 0.468,3.123 0.932,3.575 1.463,3.748 2.039,3.936 2.511,3.807 2.876,3.361 3.24,2.92 3.412,2.166 3.388,1.098 3.362,-0.007 3.149,-0.932 2.749,-1.674 2.349,-2.419 1.872,-2.896 1.319,-3.1 1.048,-3.199 0.782,-3.205 0.522,-3.111 0.263,-3.019 0.042,-2.82 -0.14,-2.517 l -0.024,-0.981 z" style="fill:#7d7d7d;fill-opacity:1;fill-rule:nonzero;stroke:none" id="path575"></path></g><g id="g577" transform="translate(365.8604,396.7891)"><path d="m 0,0 c -0.163,-0.129 -0.42,-0.303 -0.77,-0.524 -0.352,-0.224 -0.582,-0.402 -0.691,-0.535 -0.167,-0.214 -0.255,-0.442 -0.26,-0.683 -0.006,-0.238 0.056,-0.422 0.183,-0.547 0.128,-0.127 0.294,-0.152 0.496,-0.08 0.227,0.082 0.445,0.261 0.656,0.535 0.156,0.205 0.259,0.428 0.313,0.664 0.035,0.154 0.057,0.434 0.065,0.834 z M -1.652,0.784 -2.784,0.677 c 0.14,0.661 0.371,1.191 0.691,1.59 0.318,0.397 0.785,0.695 1.401,0.895 0.56,0.184 0.973,0.231 1.244,0.146 C 0.823,3.223 1.011,3.064 1.117,2.835 1.224,2.604 1.269,2.13 1.255,1.412 L 1.2,-0.529 c -0.012,-0.553 0,-0.955 0.035,-1.203 0.035,-0.25 0.103,-0.504 0.207,-0.765 L 0.197,-2.955 c -0.03,0.1 -0.067,0.25 -0.109,0.452 -0.019,0.094 -0.032,0.154 -0.04,0.183 -0.222,-0.358 -0.457,-0.653 -0.704,-0.884 -0.248,-0.231 -0.511,-0.398 -0.788,-0.499 -0.491,-0.182 -0.871,-0.143 -1.146,0.116 -0.274,0.261 -0.405,0.667 -0.391,1.22 0.007,0.366 0.079,0.715 0.213,1.045 0.134,0.33 0.32,0.611 0.554,0.842 0.235,0.23 0.57,0.476 1.008,0.738 0.591,0.347 1,0.625 1.229,0.828 L 0.025,1.252 C 0.033,1.573 -0.021,1.78 -0.138,1.877 -0.254,1.974 -0.478,1.967 -0.809,1.857 -1.031,1.781 -1.208,1.665 -1.334,1.505 -1.461,1.346 -1.568,1.106 -1.652,0.784" style="fill:#7d7d7d;fill-opacity:1;fill-rule:nonzero;stroke:none" id="path579"></path></g><g id="g581" transform="translate(368.1797,394.6133)"><path d="M 0,0 0.172,8.553 1.425,8.941 1.257,0.463 Z" style="fill:#7d7d7d;fill-opacity:1;fill-rule:nonzero;stroke:none" id="path583"></path></g><g id="g585" transform="translate(370.6348,395.5166)"><path d="M 0,0 0.16,8.408 1.415,8.798 1.259,0.464 Z" style="fill:#7d7d7d;fill-opacity:1;fill-rule:nonzero;stroke:none" id="path587"></path></g><g id="g589" transform="translate(377.0342,397.8711)"><path d="m 0,0 0.111,6.688 -1.94,-0.62 0.022,1.361 5.194,1.61 L 3.368,7.73 1.433,7.111 1.326,0.487 Z" style="fill:#7d7d7d;fill-opacity:1;fill-rule:nonzero;stroke:none" id="path591"></path></g><g id="g593" transform="translate(383.251,403.4199)"><path d="M 0,0 C -0.004,0.424 -0.093,0.717 -0.269,0.878 -0.444,1.038 -0.66,1.076 -0.916,0.991 -1.189,0.9 -1.418,0.708 -1.601,0.411 -1.781,0.115 -1.874,-0.237 -1.878,-0.645 Z m -0.093,-1.518 1.25,0.2 c -0.169,-0.596 -0.429,-1.1 -0.781,-1.51 -0.352,-0.412 -0.788,-0.715 -1.312,-0.906 -0.827,-0.305 -1.433,-0.205 -1.82,0.301 -0.306,0.41 -0.452,1.013 -0.439,1.808 0.014,0.945 0.231,1.752 0.649,2.42 0.418,0.662 0.942,1.094 1.57,1.299 C -0.272,2.323 0.28,2.232 0.682,1.826 1.083,1.423 1.268,0.662 1.235,-0.465 l -3.148,-1.103 c 0.002,-0.442 0.098,-0.752 0.287,-0.931 0.191,-0.179 0.432,-0.216 0.721,-0.11 0.196,0.072 0.363,0.194 0.5,0.37 0.136,0.175 0.24,0.415 0.312,0.721" style="fill:#7d7d7d;fill-opacity:1;fill-rule:nonzero;stroke:none" id="path595"></path></g><g id="g597" transform="translate(388.042,404.502)"><path d="m 0,0 c -0.161,-0.115 -0.417,-0.277 -0.767,-0.483 -0.349,-0.207 -0.579,-0.372 -0.687,-0.492 -0.165,-0.191 -0.25,-0.388 -0.252,-0.595 -0.002,-0.203 0.06,-0.355 0.19,-0.456 0.129,-0.101 0.295,-0.114 0.498,-0.04 0.227,0.082 0.445,0.246 0.652,0.489 0.154,0.184 0.257,0.378 0.307,0.581 0.034,0.135 0.052,0.371 0.056,0.713 z M -1.667,0.583 -2.803,0.434 c 0.134,0.57 0.36,1.031 0.675,1.386 0.315,0.353 0.78,0.629 1.397,0.83 0.559,0.182 0.975,0.244 1.248,0.184 C 0.788,2.777 0.979,2.652 1.089,2.461 1.198,2.271 1.249,1.873 1.243,1.266 l -0.03,-1.65 C 1.207,-0.853 1.224,-1.193 1.262,-1.402 1.299,-1.611 1.371,-1.825 1.479,-2.039 L 0.233,-2.498 c -0.031,0.084 -0.069,0.211 -0.114,0.379 -0.021,0.078 -0.034,0.129 -0.043,0.152 -0.218,-0.315 -0.449,-0.579 -0.696,-0.789 -0.247,-0.21 -0.509,-0.367 -0.786,-0.469 -0.49,-0.179 -0.874,-0.168 -1.153,0.037 -0.277,0.208 -0.413,0.547 -0.407,1.02 0.005,0.313 0.072,0.613 0.203,0.902 0.131,0.287 0.313,0.536 0.546,0.745 0.233,0.207 0.567,0.434 1.004,0.679 0.588,0.326 0.995,0.582 1.224,0.768 l 0.002,0.14 C 0.016,1.338 -0.042,1.512 -0.16,1.588 -0.277,1.664 -0.503,1.646 -0.832,1.535 -1.056,1.461 -1.23,1.354 -1.356,1.211 -1.482,1.07 -1.586,0.859 -1.667,0.583" style="fill:#7d7d7d;fill-opacity:1;fill-rule:nonzero;stroke:none" id="path599"></path></g><g id="g601" transform="translate(390.3564,408.0234)"><path d="M 0,0 1.155,0.378 1.149,-0.328 C 1.568,0.356 2.063,0.789 2.634,0.975 2.937,1.072 3.2,1.093 3.422,1.031 3.645,0.972 3.826,0.83 3.967,0.606 4.176,0.945 4.403,1.22 4.646,1.432 4.888,1.643 5.145,1.792 5.419,1.881 5.768,1.994 6.061,2.016 6.301,1.946 6.541,1.879 6.721,1.723 6.838,1.475 6.924,1.293 6.965,0.967 6.962,0.494 l -0.02,-3.195 -1.259,-0.463 0.021,2.89 C 5.707,0.224 5.666,0.529 5.58,0.646 5.465,0.795 5.288,0.828 5.047,0.748 4.871,0.689 4.705,0.578 4.55,0.412 4.394,0.245 4.279,0.041 4.21,-0.203 4.141,-0.448 4.105,-0.811 4.1,-1.29 L 4.079,-3.754 2.822,-4.217 2.847,-1.378 C 2.851,-0.877 2.831,-0.563 2.788,-0.433 2.744,-0.303 2.676,-0.219 2.583,-0.181 2.489,-0.141 2.362,-0.148 2.201,-0.2 2.008,-0.266 1.834,-0.381 1.677,-0.546 1.521,-0.711 1.409,-0.912 1.341,-1.15 1.271,-1.389 1.235,-1.758 1.229,-2.258 L 1.205,-4.812 -0.054,-5.273 Z" style="fill:#7d7d7d;fill-opacity:1;fill-rule:nonzero;stroke:none" id="path603"></path></g></g></g><g id="g605"><g id="g607"><g id="g613"><g id="g615"><path d="m 330.503,461.126 c -3.818,-0.178 -10.518,-1.717 -13.526,-1.898 v 0 c 0,0 4.769,-2.376 5.549,-6.809 v 0 c 0.78,-4.432 2.607,-31.874 2.563,-51.12 v 0 l 13.307,5.045 c 0,0 -0.642,16.946 -1.088,27.491 v 0 c -0.446,10.545 -1.066,23.607 -1.066,23.607 v 0 c 0,0 -0.213,3.696 -5.235,3.696 v 0 c -0.163,0 -0.331,-0.004 -0.504,-0.012" style="fill:url(#linearGradient627);stroke:none" id="path629"></path></g></g></g></g><g id="g631"><g id="g633"><g id="g639"><g id="g641"><path d="m 414.954,455.924 c -0.671,-2.545 -0.693,-8.138 3.333,-11.51 v 0 c 4.022,-3.378 8.407,-3.453 8.418,-7.635 v 0 c 0.017,-4.184 -3.488,-4.848 -4.288,-4.709 v 0 c -0.683,0.117 -3.624,1.174 -4.234,5.15 v 0 l -4.444,-3.981 c 0,0 0.221,-6.879 5.383,-8.203 v 0 c 5.164,-1.323 11.524,2.209 13.715,7.197 v 0 c 1.866,4.248 2.402,9.618 -0.392,12.677 v 0 c -2.789,3.066 -9.605,2.646 -8.696,8.623 v 0 c 0.716,4.721 8.298,6.399 7.108,-0.589 v 0 l 4.311,4.24 c 0,0 -0.206,7.428 -8.031,7.78 v 0 c -0.2,0.009 -0.398,0.014 -0.593,0.014 v 0 c -7.522,0 -10.933,-6.577 -11.59,-9.054" style="fill:url(#linearGradient653);stroke:none" id="path655"></path></g></g></g></g><g id="g657"><g id="g659"><g id="g665"><g id="g667"><path d="m 397.896,464.795 c 0,0 2.382,-0.353 2.776,-3.288 v 0 c 0.395,-2.933 0.848,-12.827 1.124,-17.456 v 0 c 0,0 -8.428,17.326 -12.057,20.922 v 0 c 0,0 -4.387,0.483 -10.524,-0.344 v 0 c 0,0 3.078,-1.734 4.112,-5.608 v 0 c 1.159,-4.354 0.959,-18.117 -0.161,-40.841 v 0 l 10.621,2.796 c 0,0 1.327,20.045 -0.574,25.347 v 0 c 0,0 5.842,-11.744 8.121,-23.653 v 0 l 8.611,1.836 c 0,0 1.019,20.392 -0.844,40.775 v 0 z" style="fill:url(#linearGradient679);stroke:none" id="path681"></path></g></g></g></g><g id="g683"><g id="g685"><g id="g691"><g id="g693"><path d="m 287.678,453.114 c -9.061,-1.97 -22.463,-5.359 -22.463,-5.359 v 0 c 4.9,-1.335 7.878,-3.475 8.499,-7.139 v 0 c 0.554,-3.262 1.507,-17.737 2.38,-27.257 v 0 c 0.49,-5.361 2.046,-22.458 1.866,-27.851 v 0 c -0.176,-5.395 -3.123,-8.926 -3.123,-8.926 v 0 c 1.452,1.288 15.358,8.547 17.433,9.772 v 0 c 1.941,1.144 1.251,5.685 1.359,7.568 v 0 c 0.109,1.883 -1.035,20.831 -1.035,20.831 v 0 c 0,0 11.951,-15.757 12.914,-17.476 v 0 c 1.166,-2.068 -0.996,-5.185 -0.996,-5.185 v 0 c 0,0 10.475,4.981 13.202,6.035 v 0 c 3.808,1.468 2.256,3.279 2.256,3.279 v 0 l -14.072,17.767 c 7.418,2.932 9.317,8.263 10.437,14.145 v 0 c 1.036,5.435 -0.068,14.021 -6.9,18.373 v 0 c -3.359,2.14 -6.774,2.956 -10.592,2.956 v 0 c -3.337,0 -6.982,-0.624 -11.165,-1.533 m 10.078,-11.042 c 3.432,0.668 7.695,0.812 8.853,-4.264 v 0 c 1.057,-4.604 0.087,-10.7 -14.832,-14.766 v 0 c 0,0 -0.579,7.841 -0.671,9.306 v 0 c -0.259,4.141 -0.367,7.475 -3.752,7.245 v 0 c 0,0 7.194,1.853 10.402,2.479" style="fill:url(#linearGradient705);stroke:none" id="path707"></path></g></g></g></g><g id="g709"><g id="g711"><g id="g717"><g id="g719"><path d="m 355.993,463.334 c -4.334,-1.699 -8.56,-3.566 -11.895,-13.849 v 0 c -4.06,-12.5 0.379,-25.316 1.699,-28.536 v 0 c 1.015,-2.481 6.603,-10.672 18.37,-7.551 v 0 c 13.519,3.585 14.308,17.808 14.777,24.792 v 0 c 0.3,4.457 0.477,20.662 -10.509,24.774 v 0 c 0,0 -3.262,1.288 -7.199,1.289 v 0 c -1.691,0 -3.507,-0.238 -5.243,-0.919 m 0.654,-34.19 c -0.448,1.416 -2.333,9.161 -0.724,15.448 v 0 c 1.045,4.073 3.033,6.494 5.497,7.893 v 0 c 2.345,1.329 4.434,0.105 4.434,0.105 v 0 c 4.948,-2.513 4.598,-12.675 4.552,-14.388 v 0 c -0.043,-1.71 -0.465,-12.03 -5.802,-14.492 v 0 c -0.837,-0.386 -1.597,-0.553 -2.284,-0.553 v 0 c -3.69,0 -5.289,4.791 -5.673,5.987" style="fill:url(#linearGradient731);stroke:none" id="path733"></path></g></g></g></g><g id="g735"><g id="g737" clip-path="url(#clipPath741)"><g id="g743" transform="translate(371.5098,87.6846)"><path d="M 0,0 H 12.861 V 2.152 H 3.797 V 4.3 h 6.904 V 6.433 H -3.174 v 4.876 H -7.393 L -7.396,4.3 h 6.974 V 2.152 H -10.486 V 0 h 4.998 c -0.926,-0.838 -1.475,-1.854 -1.475,-2.952 0,-2.87 3.711,-5.195 8.289,-5.195 4.58,0 8.289,2.325 8.289,5.195 0,0.717 -0.232,1.4 -0.65,2.021 l -4.598,0.012 c 0.647,-0.557 0.971,-1.225 0.971,-2.033 0,-1.731 -1.797,-3.134 -4.012,-3.134 -2.215,0 -4.01,1.403 -4.01,3.134 0,1.365 1.121,2.524 2.684,2.952" style="fill:#231916;fill-opacity:1;fill-rule:nonzero;stroke:none" id="path745"></path></g><g id="g747" transform="translate(257.4712,98.5732)"><path d="m 0,0 v -13.476 h -11.758 v 4.168 h 9.294 v 8.363 h -13.545 v -2.251 h 9.346 v -3.713 h -9.278 l -0.03,-8.867 H 0 v -3.29 H 4.125 V 0 Z" style="fill:#231916;fill-opacity:1;fill-rule:nonzero;stroke:none" id="path749"></path></g><g id="g751" transform="translate(230.0215,83.1543)"><path d="M 0,0 V 3.439 H -4.225 V 0 h -9.549 V -2.303 H 9.615 V 0 Z" style="fill:#231916;fill-opacity:1;fill-rule:nonzero;stroke:none" id="path753"></path></g><g id="g755" transform="translate(351.7578,82.957)"><path d="M 0,0 V 2.547 H -4.225 V 0 h -9.55 V -2.304 H 9.613 l 0,2.304 z" style="fill:#231916;fill-opacity:1;fill-rule:nonzero;stroke:none" id="path757"></path></g><g id="g759" transform="translate(270.8472,81.6768)"><path d="M 0,0 V 3.741 H -4.059 V -2.136 H 13.898 V 0 Z" style="fill:#231916;fill-opacity:1;fill-rule:nonzero;stroke:none" id="path761"></path></g><g id="g763" transform="translate(227.8291,90.2861)"><path d="M 0,0 C 3.121,0 5.651,1.349 5.651,3.013 5.651,4.677 3.121,6.026 0,6.026 -3.121,6.026 -5.649,4.677 -5.649,3.013 -5.649,1.349 -3.121,0 0,0 m -10.115,3.013 c 0,3.091 4.529,5.595 10.115,5.595 5.587,0 10.115,-2.504 10.115,-5.595 0,-3.09 -4.528,-5.596 -10.115,-5.596 -5.586,0 -10.115,2.506 -10.115,5.596" style="fill:#231916;fill-opacity:1;fill-rule:nonzero;stroke:none" id="path765"></path></g><g id="g767" transform="translate(270.2881,93.9824)"><path d="M 0,0 C 0,1.655 1.853,2.632 4.983,2.632 7.737,2.632 9.968,1.454 9.968,0 9.968,-1.452 7.737,-2.631 4.983,-2.631 2.231,-2.631 0,-1.452 0,0 m 7.41,-5.706 v 0.935 c 3.964,0.568 6.884,2.485 6.884,4.771 0,2.733 -4.169,4.948 -9.311,4.948 -5.14,0 -9.311,-2.215 -9.311,-4.948 0,-2.345 3.076,-4.304 7.196,-4.813 v -0.893 h -9.745 v -2.301 h 23.683 v 2.301 z" style="fill:#231916;fill-opacity:1;fill-rule:nonzero;stroke:none" id="path769"></path></g><g id="g771" transform="translate(289.6323,89.3799)"><path d="m 0,0 v -2.042 c 6.362,-0.075 10.26,3.47 10.26,3.47 5.087,-4.334 10.298,-3.456 10.298,-3.456 V 0.011 C 14.861,0.008 12.823,4.688 12.823,4.688 12.165,6.026 12.342,8.797 12.342,8.797 H 8.271 c 0,0 0.179,-2.491 -0.552,-4.112 C 7.719,4.685 5.985,0.003 0,0" style="fill:#231916;fill-opacity:1;fill-rule:nonzero;stroke:none" id="path773"></path></g><g id="g775" transform="translate(311.9395,80.6982)"><path d="M 0,0 V 2.138 L -23.573,2.114 v -2.138 z" style="fill:#231916;fill-opacity:1;fill-rule:nonzero;stroke:none" id="path777"></path></g><g id="g779" transform="translate(336.8516,80.6982)"><path d="M 0,0 V 2.138 L -23.572,2.114 v -2.138 z" style="fill:#231916;fill-opacity:1;fill-rule:nonzero;stroke:none" id="path781"></path></g><g id="g783" transform="translate(408.168,89.7979)"><path d="M 0,0 H -3.891 V 8.944 H -20.939 V 6.833 H -7.834 V 0 h -14.424 v -2.223 h 8.531 v -8.059 h 3.905 v 8.059 H 0 Z" style="fill:#231916;fill-opacity:1;fill-rule:nonzero;stroke:none" id="path785"></path></g><g id="g787" transform="translate(428.1211,93.791)"><path d="m 0,0 v 4.842 h -4.037 v -9.319 h -10.285 v 6.741 h 7.203 V 4.375 H -18.273 V -6.588 H -4.037 V -8.93 H 0 v 6.702 h 2.486 l 0,2.228 z" style="fill:#231916;fill-opacity:1;fill-rule:nonzero;stroke:none" id="path789"></path></g><g id="g791" transform="translate(415.7305,86.1943)"><path d="m 0,0 h -4.195 v -6.657 h 16.863 v 2.111 L 0,-4.546 Z" style="fill:#231916;fill-opacity:1;fill-rule:nonzero;stroke:none" id="path793"></path></g><path d="m 213.839,94.549 h -5.971 v 2.07 h 5.971 z" style="fill:#231916;fill-opacity:1;fill-rule:nonzero;stroke:none" id="path795"></path><path d="m 213.839,91.101 h -5.971 v 2.07 h 5.971 z" style="fill:#231916;fill-opacity:1;fill-rule:nonzero;stroke:none" id="path797"></path><path d="m 211.285,87.715 h -4.35 v 11.136 h 4.35 z" style="fill:#231916;fill-opacity:1;fill-rule:nonzero;stroke:none" id="path799"></path><g id="g801" transform="translate(197.7085,92.2344)"><path d="m 0,0 c -1.858,0 -3.363,1.154 -3.363,2.577 0,1.424 1.505,2.578 3.363,2.578 1.857,0 3.363,-1.154 3.363,-2.578 C 3.363,1.154 1.857,0 0,0 m 0,7.331 c -3.984,0 -7.214,-2.128 -7.214,-4.754 0,-2.625 3.23,-4.753 7.214,-4.753 3.984,0 7.214,2.128 7.214,4.753 0,2.626 -3.23,4.754 -7.214,4.754" style="fill:#231916;fill-opacity:1;fill-rule:nonzero;stroke:none" id="path803"></path></g><path d="m 209.713,87.715 h -6.941 v 2.07 h 6.941 z" style="fill:#231916;fill-opacity:1;fill-rule:nonzero;stroke:none" id="path805"></path><g id="g807" transform="translate(206.041,86.6436)"><path d="m 0,0 c 0.552,-0.536 0.882,-1.217 0.882,-1.958 0,-1.73 -1.796,-3.131 -4.013,-3.131 -2.216,0 -4.013,1.401 -4.013,3.131 0,1.729 1.797,3.029 4.013,3.029 v 2.071 c -4.601,0 -8.331,-2.284 -8.331,-5.1 0,-2.817 3.73,-5.101 8.331,-5.101 4.601,0 8.332,2.284 8.332,5.101 0,0.692 -0.226,1.354 -0.636,1.956 z" style="fill:#231916;fill-opacity:1;fill-rule:nonzero;stroke:none" id="path809"></path></g><g id="g811" transform="translate(179.4517,83.1543)"><path d="M 0,0 V 6.711 H -4.225 V 0 h -9.549 V -2.303 H 9.615 V 0 Z" style="fill:#231916;fill-opacity:1;fill-rule:nonzero;stroke:none" id="path813"></path></g><g id="g815" transform="translate(182.27,96.6064)"><path d="M 0,0 V -9.031 H 4.058 V 2.136 H -13.106 V 0 Z" style="fill:#231916;fill-opacity:1;fill-rule:nonzero;stroke:none" id="path817"></path></g><path d="m 315.631,98.358 h 18.941 v -1.9 h -18.941 z m 6.742,-2.659 c 0,0 0.137,-0.803 0.137,-1.129 l 0.633,-5.957 h 3.898 l 0.811,7.086 h 3.203 c 0,0 -0.617,-4.349 -0.692,-4.751 l -0.277,-2.335 h 4.586 v -2.219 h -19.215 v 2.219 h 4.506 l -0.781,7.086 z" style="fill:#231916;fill-opacity:1;fill-rule:nonzero;stroke:none" id="path819"></path><g id="g821" transform="translate(339.7598,98.3721)"><path d="M 0,0 H 19.008 V -6.493 H 4.189 v -2.889 h 15.098 v -2.546 H 0 v 7.782 h 14.783 v 2.14 L 0,-2.006 Z" style="fill:#231916;fill-opacity:1;fill-rule:nonzero;stroke:none" id="path823"></path></g></g></g></g></g></svg>